<?xml version="1.0" encoding="utf-8"?>
<!-- Generator: Adobe Illustrator 16.0.4, SVG Export Plug-In . SVG Version: 6.00 Build 0)  -->
<!DOCTYPE svg PUBLIC "-//W3C//DTD SVG 1.1//EN" "http://www.w3.org/Graphics/SVG/1.1/DTD/svg11.dtd">
<svg version="1.1" id="Layer_1" xmlns="http://www.w3.org/2000/svg" xmlns:xlink="http://www.w3.org/1999/xlink" x="0px" y="0px"
	 width="200px" height="200px" viewBox="0 0 200 200" enable-background="new 0 0 200 200" xml:space="preserve">
<g>
	<rect x="9.5" y="24.5" fill="#FFFFFF" stroke="#EBEBEB" stroke-miterlimit="10" width="180" height="140"/>
	<rect x="16" y="25" fill="#FFE8F2" width="8" height="139"/>
	<rect x="105" y="25" fill="#FFE8F2" width="8" height="139"/>
	<rect x="176" y="25" fill="#FFE8F2" width="9" height="139"/>
	<rect x="163" y="25" fill="#FFE8F2" width="7" height="139"/>
	<rect x="147" y="25" fill="#FFE8F2" width="8" height="139"/>
	<rect x="133" y="25" fill="#FFE8F2" width="9" height="139"/>
	<rect x="119" y="25" fill="#FFE8F2" width="8" height="139"/>
	<rect x="61" y="25" fill="#FFE8F2" width="8" height="139"/>
	<rect x="44" y="25" fill="#FFE8F2" width="10" height="139"/>
	<rect x="30" y="25" fill="#FFE8F2" width="9" height="139"/>
	<rect x="89" y="25" fill="#FFE8F2" width="10" height="139"/>
	<rect x="75" y="25" fill="#FFE8F2" width="9" height="139"/>
</g>
<rect x="16" y="28" fill="#ADADAD" width="83" height="20"/>
<rect x="147" y="28" fill="#ADADAD" width="38" height="6"/>
<rect x="15" y="58" fill="#ADADAD" width="169" height="46"/>
<line fill="none" stroke="#5E5E5E" stroke-miterlimit="10" x1="15" y1="58" x2="184" y2="104"/>
<line fill="none" stroke="#5E5E5E" stroke-miterlimit="10" x1="15" y1="104" x2="184" y2="58"/>
<rect x="16" y="111" fill="#ADADAD" width="53" height="20"/>
<rect x="75" y="111" fill="#ADADAD" width="52" height="20"/>
<rect x="133" y="111" fill="#ADADAD" width="52" height="20"/>
<rect x="16" y="134" fill="#ADADAD" width="83" height="20"/>
<rect x="106" y="134" fill="#ADADAD" width="79" height="20"/>
<line fill="none" stroke="#5E5E5E" stroke-miterlimit="10" x1="16" y1="111" x2="69" y2="131"/>
<line fill="none" stroke="#5E5E5E" stroke-miterlimit="10" x1="16" y1="131" x2="69" y2="111"/>
<line fill="none" stroke="#5E5E5E" stroke-miterlimit="10" x1="75" y1="111" x2="127" y2="131"/>
<line fill="none" stroke="#5E5E5E" stroke-miterlimit="10" x1="133" y1="111" x2="185" y2="131"/>
<line fill="none" stroke="#5E5E5E" stroke-miterlimit="10" x1="127" y1="111" x2="75" y2="131"/>
<line fill="none" stroke="#5E5E5E" stroke-miterlimit="10" x1="185" y1="111" x2="133" y2="131"/>
</svg>
